<svg width="18" height="18" viewBox="0 0 18 18" fill="none" xmlns="http://www.w3.org/2000/svg">
<path d="M6.29999 16.2001C6.18178 16.2002 6.06472 16.177 5.95553 16.1317C5.84633 16.0864 5.74715 16.0201 5.66369 15.9364L0.263686 10.5364C0.180126 10.4528 0.113843 10.3536 0.0686201 10.2444C0.0233977 10.1353 0.000122072 10.0182 0.00012207 9.90007C0.000122069 9.7819 0.0233977 9.66488 0.0686201 9.55571C0.113843 9.44653 0.180126 9.34733 0.263686 9.26377C0.347246 9.18021 0.446447 9.11392 0.555623 9.0687C0.6648 9.02348 0.781814 9.0002 0.899986 9.0002C1.01816 9.0002 1.13517 9.02348 1.24435 9.0687C1.35353 9.11392 1.45273 9.18021 1.53629 9.26377L6.24869 13.9762L16.4169 2.11417C16.572 1.933 16.7928 1.82088 17.0306 1.80249C17.2684 1.78409 17.5038 1.86092 17.685 2.01607C17.8662 2.17122 17.9783 2.39199 17.9967 2.6298C18.0151 2.86762 17.9382 3.103 17.7831 3.28417L6.98309 15.8842C6.9025 15.9786 6.80325 16.0553 6.69157 16.1095C6.5799 16.1637 6.45822 16.1943 6.33419 16.1992L6.29999 16.2001Z" fill="#6CB54F"/>
</svg>
