<svg width="20" height="20" viewBox="0 0 20 20" fill="none" xmlns="http://www.w3.org/2000/svg">
<path fill-rule="evenodd" clip-rule="evenodd" d="M17.0002 9.00001H5.41425L8.70725 5.70701C9.09825 5.31601 9.09825 4.68401 8.70725 4.29301C8.31625 3.90201 7.68425 3.90201 7.29325 4.29301L2.29325 9.29301C1.90225 9.68401 1.90225 10.316 2.29325 10.707L7.29325 15.707C7.48825 15.902 7.74425 16 8.00025 16C8.25625 16 8.51225 15.902 8.70725 15.707C9.09825 15.316 9.09825 14.684 8.70725 14.293L5.41425 11H17.0002C17.5532 11 18.0002 10.552 18.0002 10C18.0002 9.44801 17.5532 9.00001 17.0002 9.00001Z" fill="black"/>
</svg>
