<svg width="20" height="20" viewBox="0 0 20 20" fill="none" xmlns="http://www.w3.org/2000/svg">
<path d="M10.0003 18.3332C14.6027 18.3332 18.3337 14.6022 18.3337 9.99984C18.3337 5.39746 14.6027 1.6665 10.0003 1.6665C5.39795 1.6665 1.66699 5.39746 1.66699 9.99984C1.66699 14.6022 5.39795 18.3332 10.0003 18.3332Z" stroke="#9B9691" stroke-width="2" stroke-linecap="round" stroke-linejoin="round"/>
<path d="M10.0003 13.3332C11.8413 13.3332 13.3337 11.8408 13.3337 9.99984C13.3337 8.15889 11.8413 6.6665 10.0003 6.6665C8.15938 6.6665 6.66699 8.15889 6.66699 9.99984C6.66699 11.8408 8.15938 13.3332 10.0003 13.3332Z" stroke="#9B9691" stroke-width="2" stroke-linecap="round" stroke-linejoin="round"/>
<path d="M17.6417 6.6665H10" stroke="#9B9691" stroke-width="2" stroke-linecap="round" stroke-linejoin="round"/>
<path d="M3.29199 5.0498L7.11699 11.6665" stroke="#9B9691" stroke-width="2" stroke-linecap="round" stroke-linejoin="round"/>
<path d="M9.06641 18.2832L12.8831 11.6665" stroke="#9B9691" stroke-width="2" stroke-linecap="round" stroke-linejoin="round"/>
</svg>
