<svg id="Layer_1" data-name="Layer 1" xmlns="http://www.w3.org/2000/svg" viewBox="0 0 18.77 18.77"><defs><style>.cls-1{fill-rule:none;}</style></defs><path  d="M15.46,2.22a.77.77,0,0,1,1.08,0,.76.76,0,0,1,.23.55.74.74,0,0,1-.23.54L8.82,11l-1.45.36L7.74,10ZM16,0a2.78,2.78,0,0,0-2,.81L6.13,8.73a1.08,1.08,0,0,0-.27.46L5,12.53a1,1,0,0,0,.26.94,1,1,0,0,0,1,.27l3.34-.84a1,1,0,0,0,.46-.26L18,4.72A2.76,2.76,0,0,0,18,.81,2.78,2.78,0,0,0,16,0ZM2.67,1.77A2.66,2.66,0,0,0,0,4.43V16.1a2.66,2.66,0,0,0,2.67,2.67H14.33A2.66,2.66,0,0,0,17,16.1V10.27a1,1,0,0,0-2,0V16.1a.68.68,0,0,1-.67.67H2.67a.63.63,0,0,1-.47-.2A.63.63,0,0,1,2,16.1V4.43a.67.67,0,0,1,.67-.66H8.5a1,1,0,0,0,0-2Z"/></svg>