<svg width="72" height="72" viewBox="0 0 72 72" fill="none" xmlns="http://www.w3.org/2000/svg">
<circle cx="36" cy="36" r="36" fill="url(#paint0_linear_432_3212)"/>
<path d="M50.4979 45C52.1825 44.1707 53.5132 42.8583 54.2801 41.2702C55.047 39.682 55.2064 37.9084 54.7332 36.2293C54.2599 34.5502 53.181 33.0613 51.6666 31.9975C50.1523 30.9336 48.2887 30.3555 46.3701 30.3544H44.194C43.6712 28.5284 42.6968 26.8331 41.3441 25.3961C39.9914 23.9591 38.2956 22.8177 36.3841 22.0577C34.4727 21.2978 32.3953 20.939 30.3082 21.0085C28.2211 21.0779 26.1786 21.5737 24.3342 22.4586C22.4898 23.3436 20.8916 24.5946 19.6597 26.1176C18.4277 27.6406 17.5942 29.396 17.2216 31.2518C16.8491 33.1077 16.9472 35.0156 17.5087 36.8322C18.0702 38.6489 19.0804 40.3269 20.4634 41.7402" stroke="url(#paint1_linear_432_3212)" stroke-width="4" stroke-linecap="round" stroke-linejoin="round"/>
<path fill-rule="evenodd" clip-rule="evenodd" d="M35.1321 35.0003C35.1437 35.0001 35.1553 35 35.167 35C35.7302 35 36.2391 35.2328 36.6026 35.6075L42.7475 41.7525C43.5286 42.5335 43.5286 43.7998 42.7475 44.5809C41.9665 45.3619 40.7002 45.3619 39.9191 44.5809L37.167 41.8288V50.875C37.167 51.9796 36.2716 52.875 35.167 52.875C34.0624 52.875 33.167 51.9796 33.167 50.875V41.8281L30.4142 44.5809C29.6332 45.3619 28.3668 45.3619 27.5858 44.5809C26.8047 43.7998 26.8047 42.5335 27.5858 41.7525L33.7525 35.5858C33.8414 35.4968 33.9378 35.4172 34.0403 35.3473C34.3522 35.1343 34.7275 35.0072 35.1321 35.0003Z" fill="url(#paint2_linear_432_3212)"/>
<defs>
<linearGradient id="paint0_linear_432_3212" x1="36" y1="-18" x2="36" y2="72" gradientUnits="userSpaceOnUse">
<stop stop-color="#DBDBDB"/>
<stop offset="1" stop-color="#363636"/>
</linearGradient>
<linearGradient id="paint1_linear_432_3212" x1="36" y1="21" x2="36" y2="45" gradientUnits="userSpaceOnUse">
<stop stop-color="#F9F6F3"/>
<stop offset="1" stop-color="#D9D4CE"/>
</linearGradient>
<linearGradient id="paint2_linear_432_3212" x1="34.6344" y1="51.4185" x2="34.6344" y2="35" gradientUnits="userSpaceOnUse">
<stop stop-color="#D9D4CE"/>
<stop offset="1" stop-color="#FAF7F4"/>
</linearGradient>
</defs>
</svg>
