<svg width="80" height="80" viewBox="0 0 80 80" fill="none" xmlns="http://www.w3.org/2000/svg">
<circle cx="40" cy="40" r="40" fill="#F9F6F3"/>
<mask id="mask0_936_3311" style="mask-type:alpha" maskUnits="userSpaceOnUse" x="0" y="0" width="80" height="80">
<circle cx="40" cy="40" r="40" fill="#F9F6F3"/>
</mask>
<g mask="url(#mask0_936_3311)">
<g filter="url(#filter0_d_936_3311)">
<rect x="16" y="18" width="72" height="44" rx="9" fill="#EBE6E0"/>
</g>
<path d="M28.0815 27.1327C28.4286 26.3268 29.5714 26.3268 29.9185 27.1327L30.6578 28.8496C30.8026 29.1858 31.1195 29.416 31.4839 29.4498L33.3452 29.6224C34.219 29.7035 34.5721 30.7903 33.9129 31.3694L32.5085 32.6031C32.2335 32.8447 32.1125 33.2172 32.193 33.5743L32.6039 35.3978C32.7969 36.2539 31.8724 36.9256 31.1179 36.4775L29.5106 35.5232C29.1958 35.3363 28.8042 35.3363 28.4894 35.5232L26.8821 36.4775C26.1276 36.9256 25.2031 36.2539 25.3961 35.3978L25.807 33.5743C25.8875 33.2172 25.7665 32.8447 25.4915 32.6031L24.0871 31.3694C23.4279 30.7903 23.781 29.7035 24.6548 29.6224L26.5161 29.4498C26.8805 29.416 27.1974 29.1858 27.3422 28.8496L28.0815 27.1327Z" fill="white"/>
<path d="M42.0815 27.1327C42.4286 26.3268 43.5714 26.3268 43.9185 27.1327L44.6578 28.8496C44.8026 29.1858 45.1195 29.416 45.4839 29.4498L47.3452 29.6224C48.219 29.7035 48.5721 30.7903 47.9129 31.3694L46.5085 32.6031C46.2335 32.8447 46.1125 33.2172 46.193 33.5743L46.6039 35.3978C46.7969 36.2539 45.8724 36.9256 45.1179 36.4775L43.5106 35.5232C43.1958 35.3363 42.8042 35.3363 42.4894 35.5232L40.8821 36.4775C40.1276 36.9256 39.2031 36.2539 39.3961 35.3978L39.807 33.5743C39.8875 33.2172 39.7665 32.8447 39.4915 32.6031L38.0871 31.3694C37.4279 30.7903 37.781 29.7035 38.6548 29.6224L40.5161 29.4498C40.8805 29.416 41.1974 29.1858 41.3422 28.8496L42.0815 27.1327Z" fill="white"/>
<path d="M56.0815 27.1327C56.4286 26.3268 57.5714 26.3268 57.9185 27.1327L58.6578 28.8496C58.8026 29.1858 59.1195 29.416 59.4839 29.4498L61.3452 29.6224C62.219 29.7035 62.5721 30.7903 61.9129 31.3694L60.5085 32.6031C60.2335 32.8447 60.1125 33.2172 60.193 33.5743L60.6039 35.3978C60.7969 36.2539 59.8724 36.9256 59.1179 36.4775L57.5106 35.5232C57.1958 35.3363 56.8042 35.3363 56.4894 35.5232L54.8821 36.4775C54.1276 36.9256 53.2031 36.2539 53.3961 35.3978L53.807 33.5743C53.8875 33.2172 53.7665 32.8447 53.4915 32.6031L52.0871 31.3694C51.4279 30.7903 51.781 29.7035 52.6548 29.6224L54.5161 29.4498C54.8805 29.416 55.1974 29.1858 55.3422 28.8496L56.0815 27.1327Z" fill="white"/>
<path d="M70.0815 27.1327C70.4286 26.3268 71.5714 26.3268 71.9185 27.1327L72.6578 28.8496C72.8026 29.1858 73.1195 29.416 73.4839 29.4498L75.3452 29.6224C76.219 29.7035 76.5721 30.7903 75.9129 31.3694L74.5085 32.6031C74.2335 32.8447 74.1125 33.2172 74.193 33.5743L74.6039 35.3978C74.7969 36.2539 73.8724 36.9256 73.1179 36.4775L71.5106 35.5232C71.1958 35.3363 70.8042 35.3363 70.4894 35.5232L68.8821 36.4775C68.1276 36.9256 67.2031 36.2539 67.3961 35.3978L67.807 33.5743C67.8875 33.2172 67.7665 32.8447 67.4915 32.6031L66.0871 31.3694C65.4279 30.7903 65.781 29.7035 66.6548 29.6224L68.5161 29.4498C68.8805 29.416 69.1974 29.1858 69.3422 28.8496L70.0815 27.1327Z" fill="white"/>
<path d="M83.0815 27.1327C83.4286 26.3268 84.5714 26.3268 84.9185 27.1327L85.6578 28.8496C85.8026 29.1858 86.1195 29.416 86.4839 29.4498L88.3452 29.6224C89.219 29.7035 89.5721 30.7903 88.9129 31.3694L87.5085 32.6031C87.2335 32.8447 87.1125 33.2172 87.193 33.5743L87.6039 35.3978C87.7969 36.2539 86.8724 36.9256 86.1179 36.4775L84.5106 35.5232C84.1958 35.3363 83.8042 35.3363 83.4894 35.5232L81.8821 36.4775C81.1276 36.9256 80.2031 36.2539 80.3961 35.3978L80.807 33.5743C80.8875 33.2172 80.7665 32.8447 80.4915 32.6031L79.0871 31.3694C78.4279 30.7903 78.781 29.7035 79.6548 29.6224L81.5161 29.4498C81.8805 29.416 82.1974 29.1858 82.3422 28.8496L83.0815 27.1327Z" fill="#D8D3CE"/>
<rect x="26" y="43" width="58" height="2" rx="1" fill="#D8D3CE"/>
<rect x="26" y="47" width="58" height="2" rx="1" fill="#D8D3CE"/>
<rect x="26" y="51" width="41" height="2" rx="1" fill="#D8D3CE"/>
</g>
<defs>
<filter id="filter0_d_936_3311" x="12" y="16" width="80" height="52" filterUnits="userSpaceOnUse" color-interpolation-filters="sRGB">
<feFlood flood-opacity="0" result="BackgroundImageFix"/>
<feColorMatrix in="SourceAlpha" type="matrix" values="0 0 0 0 0 0 0 0 0 0 0 0 0 0 0 0 0 0 127 0" result="hardAlpha"/>
<feOffset dy="2"/>
<feGaussianBlur stdDeviation="2"/>
<feComposite in2="hardAlpha" operator="out"/>
<feColorMatrix type="matrix" values="0 0 0 0 0.316963 0 0 0 0 0.305127 0 0 0 0 0.293292 0 0 0 0.15 0"/>
<feBlend mode="normal" in2="BackgroundImageFix" result="effect1_dropShadow_936_3311"/>
<feBlend mode="normal" in="SourceGraphic" in2="effect1_dropShadow_936_3311" result="shape"/>
</filter>
</defs>
</svg>
