<svg id="Layer_1" data-name="Layer 1" xmlns="http://www.w3.org/2000/svg" viewBox="0 0 18.67 18.66"><defs><style>.cls-1{fill-rule:none;}</style></defs><path  d="M9.33,0a1,1,0,0,0-1,1V9.33a1,1,0,0,0,1,1h8.34a1,1,0,0,0,1-1A9.33,9.33,0,0,0,9.33,0Zm1,8.33V2.07a7.14,7.14,0,0,1,1.81.49,7.33,7.33,0,0,1,4,4,7.5,7.5,0,0,1,.49,1.8ZM6.4,2.61A1,1,0,1,0,5.6.78,9.33,9.33,0,0,0,.43,12.12a9.3,9.3,0,0,0,6.22,6.15,9.36,9.36,0,0,0,8.57-1.7A9.2,9.2,0,0,0,17.93,13a1,1,0,1,0-1.84-.77,7.33,7.33,0,0,1-5.33,4.33,7.31,7.31,0,0,1-6.58-2A7.36,7.36,0,0,1,2.12,8,7.34,7.34,0,0,1,6.4,2.61Z"/></svg>