<svg width="20" height="20" viewBox="0 0 20 20" fill="none" xmlns="http://www.w3.org/2000/svg">
<path fill-rule="evenodd" clip-rule="evenodd" d="M15 9C15 12.3137 12.3137 15 9 15C5.68629 15 3 12.3137 3 9C3 5.68629 5.68629 3 9 3C12.3137 3 15 5.68629 15 9ZM13.9581 15.2787C12.595 16.3566 10.8727 17 9 17C4.58172 17 1 13.4183 1 9C1 4.58172 4.58172 1 9 1C13.4183 1 17 4.58172 17 9C17 10.8247 16.3891 12.5068 15.3606 13.8528L18.2773 16.7695C18.6678 17.16 18.6678 17.7931 18.2773 18.1837C17.8867 18.5742 17.2536 18.5742 16.8631 18.1837L13.9581 15.2787Z" fill="#9B9691"/>
</svg>
