<svg width="20" height="20" viewBox="0 0 20 20" fill="none" xmlns="http://www.w3.org/2000/svg">
<path d="M3.5 17C3.5 17.5523 3.94772 18 4.5 18C5.05228 18 5.5 17.5523 5.5 17H3.5ZM4.5 8L5.20711 7.29289C4.81658 6.90237 4.18342 6.90237 3.79289 7.29289L4.5 8ZM0.292893 10.7929C-0.0976311 11.1834 -0.0976311 11.8166 0.292893 12.2071C0.683417 12.5976 1.31658 12.5976 1.70711 12.2071L0.292893 10.7929ZM7.29289 12.2071C7.68342 12.5976 8.31658 12.5976 8.70711 12.2071C9.09763 11.8166 9.09763 11.1834 8.70711 10.7929L7.29289 12.2071ZM5.5 17V8H3.5V17H5.5ZM3.79289 7.29289L0.292893 10.7929L1.70711 12.2071L5.20711 8.70711L3.79289 7.29289ZM3.79289 8.70711L7.29289 12.2071L8.70711 10.7929L5.20711 7.29289L3.79289 8.70711Z" fill="black"/>
<path d="M16.5 3C16.5 2.44772 16.0523 2 15.5 2C14.9477 2 14.5 2.44772 14.5 3L16.5 3ZM15.5 12L14.7929 12.7071C15.1834 13.0976 15.8166 13.0976 16.2071 12.7071L15.5 12ZM19.7071 9.20711C20.0976 8.81658 20.0976 8.18342 19.7071 7.79289C19.3166 7.40237 18.6834 7.40237 18.2929 7.79289L19.7071 9.20711ZM12.7071 7.79289C12.3166 7.40237 11.6834 7.40237 11.2929 7.79289C10.9024 8.18342 10.9024 8.81658 11.2929 9.20711L12.7071 7.79289ZM14.5 3L14.5 12L16.5 12L16.5 3L14.5 3ZM16.2071 12.7071L19.7071 9.20711L18.2929 7.79289L14.7929 11.2929L16.2071 12.7071ZM16.2071 11.2929L12.7071 7.79289L11.2929 9.20711L14.7929 12.7071L16.2071 11.2929Z" fill="black"/>
</svg>
