<svg width="22" height="22" viewBox="0 0 22 22" fill="none" xmlns="http://www.w3.org/2000/svg">
<path d="M10.0815 1.13274C10.4286 0.326781 11.5714 0.326779 11.9185 1.13274L14.2801 6.61672C14.4249 6.95289 14.7417 7.18311 15.1062 7.21692L21.0516 7.76833C21.9253 7.84937 22.2785 8.93618 21.6192 9.51533L17.1334 13.456C16.8584 13.6976 16.7374 14.0701 16.8179 14.4272L18.1307 20.2519C18.3236 21.108 17.3991 21.7797 16.6446 21.3316L11.5106 18.2832C11.1958 18.0963 10.8042 18.0963 10.4894 18.2832L5.35543 21.3316C4.6009 21.7797 3.6764 21.108 3.86934 20.2519L5.18213 14.4272C5.26261 14.0701 5.14157 13.6976 4.86659 13.456L0.380808 9.51534C-0.278454 8.93618 0.0746708 7.84937 0.948442 7.76833L6.8938 7.21692C7.25826 7.18311 7.57513 6.95289 7.7199 6.61672L10.0815 1.13274Z" fill="#FFBF3A"/>
</svg>
