<svg width="16" height="15" viewBox="0 0 16 15" fill="none" xmlns="http://www.w3.org/2000/svg">
<path d="M7.08155 1.13274C7.42863 0.326778 8.57137 0.326779 8.91845 1.13274L10.1986 4.10531C10.3433 4.44148 10.6602 4.6717 11.0247 4.70551L14.2473 5.0044C15.1211 5.08544 15.4742 6.17225 14.815 6.7514L12.3835 8.88744C12.1085 9.12901 11.9875 9.50152 12.0679 9.85858L12.7795 13.0159C12.9725 13.8719 12.048 14.5436 11.2934 14.0956L8.51056 12.4432C8.19584 12.2563 7.80416 12.2563 7.48944 12.4432L4.70657 14.0956C3.95204 14.5436 3.02755 13.8719 3.22048 13.0159L3.93207 9.85858C4.01255 9.50152 3.89152 9.12901 3.61653 8.88744L1.18503 6.7514C0.525769 6.17225 0.878896 5.08544 1.75267 5.0044L4.97532 4.70551C5.33978 4.6717 5.65665 4.44148 5.80143 4.10531L7.08155 1.13274Z" fill="#D8D3CE"/>
</svg>
